<?xml version="1.0" encoding="UTF-8"?>
<svg version="1.1" xmlns="http://www.w3.org/2000/svg" width="600" height="600">
<path d="M0 0 C1.40934814 0.23348145 1.40934814 0.23348145 2.84716797 0.47167969 C42.06140264 7.31113367 80.7942585 24.26486078 112 49 C113.25296875 49.96486328 113.25296875 49.96486328 114.53125 50.94921875 C131.23270011 63.97740689 147.11133736 79.19864703 159.70556641 96.25683594 C161.02587785 98.03484871 162.3752701 99.78753671 163.73046875 101.5390625 C187.63452741 132.77971806 203.58133487 171.25544889 210 210 C210.16081055 210.96663574 210.32162109 211.93327148 210.48730469 212.92919922 C214.88305471 240.81275582 214.62944799 270.17228609 210 298 C209.76651855 299.40934814 209.76651855 299.40934814 209.52832031 300.84716797 C202.68886633 340.06140264 185.73513922 378.7942585 161 410 C160.03513672 411.25296875 160.03513672 411.25296875 159.05078125 412.53125 C146.02259311 429.23270011 130.80135297 445.11133736 113.74316406 457.70556641 C111.96515129 459.02587785 110.21246329 460.3752701 108.4609375 461.73046875 C77.22028194 485.63452741 38.74455111 501.58133487 0 508 C-0.96663574 508.16081055 -1.93327148 508.32162109 -2.92919922 508.48730469 C-30.81275582 512.88305471 -60.17228609 512.62944799 -88 508 C-88.93956543 507.8443457 -89.87913086 507.68869141 -90.84716797 507.52832031 C-130.06140264 500.68886633 -168.7942585 483.73513922 -200 459 C-200.8353125 458.35675781 -201.670625 457.71351563 -202.53125 457.05078125 C-219.23270011 444.02259311 -235.11133736 428.80135297 -247.70556641 411.74316406 C-249.02587785 409.96515129 -250.3752701 408.21246329 -251.73046875 406.4609375 C-275.63452741 375.22028194 -291.58133487 336.74455111 -298 298 C-298.16081055 297.03336426 -298.32162109 296.06672852 -298.48730469 295.07080078 C-302.88305471 267.18724418 -302.62944799 237.82771391 -298 210 C-297.8443457 209.06043457 -297.68869141 208.12086914 -297.52832031 207.15283203 C-290.68886633 167.93859736 -273.73513922 129.2057415 -249 98 C-248.03513672 96.74703125 -248.03513672 96.74703125 -247.05078125 95.46875 C-234.02259311 78.76729989 -218.80135297 62.88866264 -201.74316406 50.29443359 C-199.96515129 48.97412215 -198.21246329 47.6247299 -196.4609375 46.26953125 C-165.22028194 22.36547259 -126.74455111 6.41866513 -88 0 C-87.03336426 -0.16081055 -86.06672852 -0.32162109 -85.07080078 -0.48730469 C-57.18724418 -4.88305471 -27.82771391 -4.62944799 0 0 Z M-86 10 C-86.92425781 10.16097168 -87.84851563 10.32194336 -88.80078125 10.48779297 C-132.87750355 18.42068853 -174.74079946 38.5358533 -207.73046875 68.9140625 C-209.8276005 70.84154676 -211.96376355 72.70761357 -214.125 74.5625 C-220.99569648 80.57952277 -227.00815 87.03168468 -232.71875 94.16015625 C-234.19592633 95.99903843 -235.6947954 97.82078823 -237.21875 99.62109375 C-265.61722859 133.2692911 -281.79633119 174.9397808 -289 218 C-289.19698486 219.11689209 -289.19698486 219.11689209 -289.39794922 220.25634766 C-293.54029044 244.5817091 -292.32914982 271.82210666 -288 296 C-287.75854248 297.38638672 -287.75854248 297.38638672 -287.51220703 298.80078125 C-279.39728304 343.88888919 -258.60934313 386.7389975 -227 420 C-225.78427491 421.3894001 -224.57537389 422.78481591 -223.375 424.1875 C-217.38483781 431.04136 -210.9441428 437.02751455 -203.83984375 442.71875 C-202.00096157 444.19592633 -200.17921177 445.6947954 -198.37890625 447.21875 C-148.75222691 489.10278249 -82.91251577 505.49692501 -19.0546875 500.53125 C33.04774098 495.49207289 84.00683574 473.1065174 122 437 C123.3894001 435.78427491 124.78481591 434.57537389 126.1875 433.375 C133.04136 427.38483781 139.02751455 420.9441428 144.71875 413.83984375 C146.19592633 412.00096157 147.6947954 410.17921177 149.21875 408.37890625 C177.61722859 374.7307089 193.79633119 333.0602192 201 290 C201.13132324 289.25540527 201.26264648 288.51081055 201.39794922 287.74365234 C211.6021522 227.82079417 193.8060437 162.0538007 159.41015625 112.78125 C153.12050272 103.99429664 146.44414065 95.83311376 139 88 C137.78427491 86.6105999 136.57537389 85.21518409 135.375 83.8125 C129.38483781 76.95864 122.9441428 70.97248545 115.83984375 65.28125 C114.00096157 63.80407367 112.17921177 62.3052046 110.37890625 60.78125 C98.27569792 50.56635798 84.93590528 42.44908943 71 35 C70.36513672 34.65727051 69.73027344 34.31454102 69.07617188 33.96142578 C34.56058198 15.47345981 -4.19264778 6.77994957 -43.1875 6.75 C-43.98135101 6.74932526 -44.77520203 6.74865051 -45.59310913 6.74795532 C-59.25143298 6.76630107 -72.53202821 7.58850505 -86 10 Z " fill="#000000" transform="translate(344,46)"/>
</svg>
